# xmcd
#
# Track frame offsets:
#	150
#	44568
#	71723
#	87458
#	107148
#	139310
#	174609
#	203255
#
# Disc length: 3320 seconds
#
# Revision: 0
# Processed by: cddbd v1.5.2PL0 Copyright (c) Steve Scherf et al.
# Submitted via: EasyCDDAExtractor 9.0.0.1
#
DISCID=730cf608
DTITLE=Wasp - Markthalle Hamburg 01-02-87
DYEAR=1987
DGENRE=Hard Rock
TTITLE0=On Your Knees - I Don't Need No Doctor - The Hellion - Chainsaw Charli
TTITLE0=e (Murders In The New Morgue)
TTITLE1=Wildchild
TTITLE2=Animal (Fuck Like A Beast)
TTITLE3=LOVE Machine
TTITLE4=Blind in Texas
TTITLE5=I Wanna Be Somebody
TTITLE6=Kill Your Pretty Face
TTITLE7=The Horror
EXTD=
EXTT0=
EXTT1=
EXTT2=
EXTT3=
EXTT4=
EXTT5=
EXTT6=
EXTT7=
PLAYORDER=
